<svg width="14" height="14" viewBox="0 0 14 14" fill="none" xmlns="http://www.w3.org/2000/svg">
<path d="M6.99998 3.66665C6.63331 3.66665 6.33331 3.96665 6.33331 4.33331V6.33331H4.33331C3.96665 6.33331 3.66665 6.63331 3.66665 6.99998C3.66665 7.36665 3.96665 7.66665 4.33331 7.66665H6.33331V9.66665C6.33331 10.0333 6.63331 10.3333 6.99998 10.3333C7.36665 10.3333 7.66665 10.0333 7.66665 9.66665V7.66665H9.66665C10.0333 7.66665 10.3333 7.36665 10.3333 6.99998C10.3333 6.63331 10.0333 6.33331 9.66665 6.33331H7.66665V4.33331C7.66665 3.96665 7.36665 3.66665 6.99998 3.66665ZM6.99998 0.333313C3.31998 0.333313 0.333313 3.31998 0.333313 6.99998C0.333313 10.68 3.31998 13.6666 6.99998 13.6666C10.68 13.6666 13.6666 10.68 13.6666 6.99998C13.6666 3.31998 10.68 0.333313 6.99998 0.333313ZM6.99998 12.3333C4.05998 12.3333 1.66665 9.93998 1.66665 6.99998C1.66665 4.05998 4.05998 1.66665 6.99998 1.66665C9.93998 1.66665 12.3333 4.05998 12.3333 6.99998C12.3333 9.93998 9.93998 12.3333 6.99998 12.3333Z" fill="#9873FF"/>
</svg>
